<svg width="93" height="89" viewBox="0 0 93 89" fill="none" xmlns="http://www.w3.org/2000/svg">
<path d="M6.2723 9.4689C0.966797 16.2153 0.966797 26.0898 0.966797 45.8387C0.966797 65.588 0.966797 75.462 6.2723 82.209C7.4898 83.757 8.8875 85.154 10.4357 86.372C11.0282 86.838 11.6449 87.263 12.2903 87.651L38.4058 29.9932C39.5411 27.4866 42.4165 26.2787 45.0013 27.2223L61.597 33.281C63.165 33.8533 64.368 35.1356 64.839 36.7365L80.038 88.354C81.162 87.793 82.201 87.138 83.175 86.372C84.724 85.154 86.121 83.757 87.339 82.209C92.644 75.462 92.644 65.588 92.644 45.8387C92.644 26.0898 92.644 16.2153 87.339 9.4689C86.121 7.9207 84.724 6.523 83.175 5.3055C76.429 0 66.554 0 46.8055 0C27.0566 0 17.1821 0 10.4357 5.3055C8.8875 6.523 7.4898 7.9207 6.2723 9.4689Z" fill="url(#paint0_linear_2_22)"/>
<defs>
<linearGradient id="paint0_linear_2_22" x1="46.8055" y1="-24.1582" x2="46.8055" y2="128.844" gradientUnits="userSpaceOnUse">
<stop stop-color="#0BF7FE"/>
<stop offset="1" stop-color="#38C6FB"/>
</linearGradient>
</defs>
</svg>
