<svg width="363" height="89" viewBox="0 0 363 89" fill="none" xmlns="http://www.w3.org/2000/svg">
<path d="M164.839 67.56C161.68 67.56 158.741 67.02 156.022 65.94C153.343 64.821 150.984 63.261 148.944 61.262C146.945 59.262 145.385 56.943 144.266 54.304C143.146 51.625 142.586 48.7455 142.586 45.6664C142.586 42.5874 143.146 39.7282 144.266 37.089C145.385 34.4099 146.945 32.0906 148.944 30.1312C150.944 28.1718 153.283 26.6522 155.962 25.5726C158.681 24.4529 161.62 23.8931 164.779 23.8931C168.138 23.8931 171.118 24.4329 173.717 25.5126C175.947 26.4252 177.935 27.6234 179.681 29.1074C180.208 29.5557 180.216 30.354 179.729 30.8457L175.223 35.3939C174.728 35.8935 173.921 35.8757 173.386 35.419C172.467 34.6346 171.418 33.9916 170.238 33.4901C168.678 32.8103 166.859 32.4705 164.779 32.4705C162.94 32.4705 161.241 32.7904 159.681 33.4302C158.161 34.03 156.842 34.9097 155.722 36.0694C154.643 37.229 153.783 38.6286 153.143 40.2681C152.543 41.9076 152.243 43.707 152.243 45.6664C152.243 47.6658 152.543 49.4853 153.143 51.125C153.783 52.764 154.643 54.164 155.722 55.323C156.842 56.483 158.161 57.383 159.681 58.023C161.241 58.662 162.94 58.982 164.779 58.982C166.939 58.982 168.818 58.642 170.418 57.963C171.613 57.455 172.686 56.801 173.636 56.003C174.166 55.557 174.958 55.545 175.447 56.035L180.002 60.589C180.5 61.087 180.485 61.902 179.942 62.349C178.141 63.831 176.126 65.028 173.897 65.94C171.297 67.02 168.278 67.56 164.839 67.56Z" fill="#034369"/>
<path d="M131.411 66.9C130.727 66.9 130.172 66.345 130.172 65.661V25.7917C130.172 25.1075 130.727 24.5529 131.411 24.5529H138.35C139.034 24.5529 139.589 25.1075 139.589 25.7917V65.661C139.589 66.345 139.034 66.9 138.35 66.9H131.411Z" fill="#034369"/>
<path d="M183.101 65.661C183.101 66.345 183.656 66.9 184.34 66.9H191.279C191.323 66.9 191.366 66.898 191.409 66.893C191.451 66.898 191.494 66.9 191.538 66.9H212.273C212.957 66.9 213.512 66.345 213.512 65.661V59.981C213.512 59.297 212.957 58.742 212.273 58.742H192.518V49.2053H210.174C210.858 49.2053 211.412 48.6507 211.412 47.9665V42.5866C211.412 41.9024 210.858 41.3477 210.174 41.3477H192.518V32.6504H211.973C212.657 32.6504 213.212 32.0957 213.212 31.4115V25.7917C213.212 25.1075 212.657 24.5529 211.973 24.5529H191.538C191.494 24.5529 191.451 24.5551 191.409 24.5595C191.366 24.5551 191.323 24.5529 191.279 24.5529H184.34C183.656 24.5529 183.101 25.1075 183.101 25.7917V65.661Z" fill="#034369"/>
<path fill-rule="evenodd" clip-rule="evenodd" d="M225.441 66.9C225.377 66.9 225.314 66.895 225.252 66.886C225.191 66.895 225.127 66.9 225.063 66.9H218.244C217.559 66.9 217.005 66.345 217.005 65.661V25.7917C217.005 25.1075 217.559 24.5529 218.244 24.5529H225.063C225.127 24.5529 225.191 24.5578 225.252 24.5672C225.314 24.5578 225.377 24.5529 225.441 24.5529H235.179C237.898 24.5529 240.198 25.0527 242.077 26.0524C243.997 27.0521 245.456 28.3917 246.456 30.0712C247.455 31.7507 247.955 33.6101 247.955 35.6495C247.955 38.2487 247.116 40.448 245.436 42.2475C244.713 43.0227 243.841 43.694 242.82 44.2614C244.251 44.9625 245.463 45.8507 246.456 46.926C248.415 49.0054 249.395 51.565 249.395 54.604C249.395 56.923 248.815 59.022 247.655 60.902C246.536 62.741 244.896 64.201 242.737 65.28C240.618 66.36 238.058 66.9 235.059 66.9H225.441ZM226.302 59.582H234.16C235.999 59.582 237.439 59.042 238.478 57.963C239.518 56.883 240.038 55.563 240.038 54.004C240.038 52.924 239.798 51.965 239.318 51.125C238.838 50.285 238.158 49.6252 237.279 49.1454C236.439 48.6655 235.399 48.4256 234.16 48.4256H226.302V59.582ZM233.38 41.2878H226.302V31.8706H233.38C234.939 31.8706 236.199 32.2705 237.159 33.0703C238.118 33.83 238.598 34.9897 238.598 36.5492C238.598 38.1487 238.118 39.3484 237.159 40.1481C236.199 40.9079 234.939 41.2878 233.38 41.2878Z" fill="#034369"/>
<path d="M252.431 65.661C252.431 66.345 252.986 66.9 253.67 66.9H260.61C260.653 66.9 260.696 66.898 260.739 66.893C260.781 66.898 260.825 66.9 260.868 66.9H281.603C282.288 66.9 282.842 66.345 282.842 65.661V59.981C282.842 59.297 282.288 58.742 281.603 58.742H261.849V49.2053H279.504C280.188 49.2053 280.743 48.6507 280.743 47.9665V42.5866C280.743 41.9024 280.188 41.3477 279.504 41.3477H261.849V32.6504H281.303C281.988 32.6504 282.542 32.0957 282.542 31.4115V25.7917C282.542 25.1075 281.988 24.5529 281.303 24.5529H260.868C260.825 24.5529 260.781 24.5551 260.739 24.5595C260.696 24.5551 260.653 24.5529 260.61 24.5529H253.67C252.986 24.5529 252.431 25.1075 252.431 25.7917V65.661Z" fill="#034369"/>
<path fill-rule="evenodd" clip-rule="evenodd" d="M295.752 65.661V49.4453H296.989C296.998 49.677 297.073 49.9106 297.224 50.119L308.997 66.387C309.23 66.709 309.603 66.9 310.001 66.9H318.019C319.045 66.9 319.627 65.724 319.004 64.909L306.959 49.1404C308.4 48.884 309.723 48.4658 310.928 47.8858C313.087 46.8461 314.767 45.4065 315.966 43.5671C317.166 41.6876 317.766 39.5083 317.766 37.0291C317.766 34.5898 317.166 32.4305 315.966 30.551C314.767 28.6716 313.107 27.2121 310.988 26.1724C308.868 25.0927 306.409 24.5529 303.61 24.5529H294.772C294.728 24.5529 294.685 24.5551 294.643 24.5595C294.6 24.5551 294.557 24.5529 294.513 24.5529H287.574C286.89 24.5529 286.335 25.1075 286.335 25.7917V65.661C286.335 66.345 286.89 66.9 287.574 66.9H294.513C295.198 66.9 295.752 66.345 295.752 65.661ZM302.47 42.4874H295.752V31.8706H302.53C304.41 31.8706 305.849 32.3705 306.849 33.3702C307.849 34.3699 308.348 35.6295 308.348 37.149C308.348 38.7885 307.829 40.0881 306.789 41.0478C305.789 42.0075 304.35 42.4874 302.47 42.4874Z" fill="#034369"/>
<path d="M332.746 65.88C335.465 67 338.364 67.56 341.443 67.56C345.642 67.56 349.341 66.68 352.54 64.921C355.779 63.161 358.298 60.562 360.097 57.123C361.937 53.644 362.856 49.3653 362.856 44.2868V44.1462C362.856 43.4619 362.302 42.9073 361.617 42.9073H341.842C341.158 42.9073 340.603 43.4619 340.603 44.1462V49.6655C340.603 50.342 341.146 50.893 341.822 50.904L352.769 51.078C352.536 51.959 352.219 52.775 351.82 53.524C350.9 55.283 349.56 56.643 347.801 57.603C346.081 58.523 343.982 58.982 341.503 58.982C339.064 58.982 336.904 58.423 335.025 57.303C333.145 56.183 331.666 54.624 330.586 52.624C329.507 50.625 328.967 48.3056 328.967 45.6664C328.967 43.0272 329.507 40.7279 330.586 38.7685C331.706 36.7691 333.245 35.2296 335.205 34.1499C337.164 33.0303 339.384 32.4705 341.863 32.4705C344.182 32.4705 346.261 32.9103 348.101 33.79C349.545 34.4807 350.841 35.4424 351.989 36.6752C352.498 37.2216 353.367 37.2814 353.895 36.7533L358.512 32.1362C358.967 31.6809 359.001 30.9494 358.557 30.483C356.729 28.5637 354.503 27.0268 351.88 25.8725C348.921 24.5529 345.622 23.8931 341.983 23.8931C338.824 23.8931 335.865 24.4529 333.105 25.5726C330.346 26.6522 327.927 28.1918 325.848 30.1911C323.808 32.1505 322.209 34.4498 321.049 37.089C319.889 39.7282 319.31 42.5874 319.31 45.6664C319.31 48.7455 319.869 51.625 320.989 54.304C322.149 56.943 323.728 59.262 325.728 61.262C327.727 63.221 330.066 64.761 332.746 65.88Z" fill="#034369"/>
<path d="M6.2723 9.4689C0.966797 16.2153 0.966797 26.0898 0.966797 45.8387C0.966797 65.588 0.966797 75.462 6.2723 82.209C7.4898 83.757 8.8875 85.154 10.4357 86.372C11.0282 86.838 11.6449 87.263 12.2903 87.651L38.4058 29.9932C39.5411 27.4866 42.4165 26.2787 45.0013 27.2223L61.597 33.281C63.165 33.8533 64.368 35.1356 64.839 36.7365L80.038 88.354C81.162 87.793 82.201 87.138 83.175 86.372C84.724 85.154 86.121 83.757 87.339 82.209C92.644 75.462 92.644 65.588 92.644 45.8387C92.644 26.0898 92.644 16.2153 87.339 9.4689C86.121 7.9207 84.724 6.523 83.175 5.3055C76.429 0 66.554 0 46.8055 0C27.0566 0 17.1821 0 10.4357 5.3055C8.8875 6.523 7.4898 7.9207 6.2723 9.4689Z" fill="url(#paint0_linear_2_25)"/>
<defs>
<linearGradient id="paint0_linear_2_25" x1="46.8055" y1="-24.1582" x2="46.8055" y2="128.844" gradientUnits="userSpaceOnUse">
<stop stop-color="#0BF7FE"/>
<stop offset="1" stop-color="#38C6FB"/>
</linearGradient>
</defs>
</svg>
